<svg width="100%" viewBox="0 0 680 540" xmlns="http://www.w3.org/2000/svg">
<style>
@import url('https://fonts.googleapis.com/css2?family=Share+Tech+Mono&amp;display=swap');
.mono { font-family: 'Share Tech Mono', monospace; font-size: 13px; fill: #00ffcc; }
.mono-dim { font-family: 'Share Tech Mono', monospace; font-size: 13px; fill: #00aa88; }
.mono-head { font-family: 'Share Tech Mono', monospace; font-size: 13px; fill: #00ffcc; font-weight: bold; }
.border { fill: none; stroke: #00ffcc; stroke-width: 1; }
.border-dim { fill: none; stroke: #004433; stroke-width: 0.5; }
.scanline { fill: none; stroke: #00ffcc; stroke-width: 0.3; opacity: 0.04; }

.L1  { opacity:0; animation: fadein 0.01s 0.2s forwards; }
.L2  { opacity:0; animation: fadein 0.01s 0.5s forwards; }
.L3  { opacity:0; animation: fadein 0.01s 0.8s forwards; }
.L4  { opacity:0; animation: fadein 0.01s 1.1s forwards; }
.L5  { opacity:0; animation: fadein 0.01s 1.5s forwards; }
.L6  { opacity:0; animation: fadein 0.01s 1.9s forwards; }
.L7  { opacity:0; animation: fadein 0.01s 2.3s forwards; }
.L8  { opacity:0; animation: fadein 0.01s 2.7s forwards; }
.L9  { opacity:0; animation: fadein 0.01s 3.1s forwards; }
.L10 { opacity:0; animation: fadein 0.01s 3.5s forwards; }
.L11 { opacity:0; animation: fadein 0.01s 3.9s forwards; }
.L12 { opacity:0; animation: fadein 0.01s 4.3s forwards; }
.L13 { opacity:0; animation: fadein 0.01s 4.7s forwards; }
.L14 { opacity:0; animation: fadein 0.01s 5.1s forwards; }
.L15 { opacity:0; animation: fadein 0.01s 5.5s forwards; }
.L16 { opacity:0; animation: fadein 0.01s 5.9s forwards; }
.L17 { opacity:0; animation: fadein 0.01s 6.3s forwards; }
.L18 { opacity:0; animation: fadein 0.01s 6.7s forwards; }
.L19 { opacity:0; animation: fadein 0.01s 7.1s forwards; }
.L20 { opacity:0; animation: fadein 0.01s 7.5s forwards; }
.L21 { opacity:0; animation: fadein 0.01s 7.9s forwards; }
.L22 { opacity:0; animation: fadein 0.01s 8.3s forwards; }

@keyframes fadein { to { opacity: 1; } }

.cursor { opacity: 0; animation: fadein 0.01s 8.6s forwards; }
@keyframes blink { 0%,49%{opacity:1} 50%,100%{opacity:0} }
.blink { animation: fadein 0.01s 8.6s forwards, blink 1s 8.6s step-end infinite; }

@keyframes pulse { 0%,100%{opacity:1} 50%{opacity:0.7} }
.glow { animation: pulse 3s ease-in-out infinite; }
</style>

<!-- Background -->
<rect x="0" y="0" width="680" height="540" fill="#050d0a"/>

<!-- Scanlines -->
<line class="scanline" x1="0" y1="20"  x2="680" y2="20"/>
<line class="scanline" x1="0" y1="40"  x2="680" y2="40"/>
<line class="scanline" x1="0" y1="60"  x2="680" y2="60"/>
<line class="scanline" x1="0" y1="80"  x2="680" y2="80"/>
<line class="scanline" x1="0" y1="100" x2="680" y2="100"/>
<line class="scanline" x1="0" y1="120" x2="680" y2="120"/>
<line class="scanline" x1="0" y1="140" x2="680" y2="140"/>
<line class="scanline" x1="0" y1="160" x2="680" y2="160"/>
<line class="scanline" x1="0" y1="180" x2="680" y2="180"/>
<line class="scanline" x1="0" y1="200" x2="680" y2="200"/>
<line class="scanline" x1="0" y1="220" x2="680" y2="220"/>
<line class="scanline" x1="0" y1="240" x2="680" y2="240"/>
<line class="scanline" x1="0" y1="260" x2="680" y2="260"/>
<line class="scanline" x1="0" y1="280" x2="680" y2="280"/>
<line class="scanline" x1="0" y1="300" x2="680" y2="300"/>
<line class="scanline" x1="0" y1="320" x2="680" y2="320"/>
<line class="scanline" x1="0" y1="340" x2="680" y2="340"/>
<line class="scanline" x1="0" y1="360" x2="680" y2="360"/>
<line class="scanline" x1="0" y1="380" x2="680" y2="380"/>
<line class="scanline" x1="0" y1="400" x2="680" y2="400"/>
<line class="scanline" x1="0" y1="420" x2="680" y2="420"/>
<line class="scanline" x1="0" y1="440" x2="680" y2="440"/>
<line class="scanline" x1="0" y1="460" x2="680" y2="460"/>
<line class="scanline" x1="0" y1="480" x2="680" y2="480"/>
<line class="scanline" x1="0" y1="500" x2="680" y2="500"/>
<line class="scanline" x1="0" y1="520" x2="680" y2="520"/>

<!-- Outer border -->
<rect x="10" y="10" width="660" height="520" rx="6" class="border"/>
<rect x="14" y="14" width="652" height="512" rx="4" class="border-dim"/>

<!-- Title bar -->
<rect x="10" y="10" width="660" height="30" rx="6" fill="#00ffcc" opacity="0.06"/>
<text x="340" y="30" text-anchor="middle" class="mono-head glow">OPERATOR TERMINAL v2.1 — CLEARANCE: ACTIVE</text>
<line x1="10" y1="40" x2="670" y2="40" stroke="#00ffcc" stroke-width="0.8" opacity="0.5"/>

<!-- Lines -->
<text x="30" y="66"  class="mono L1">╔══════════════════════════════════════════════════════════════════╗</text>

<text x="30" y="84"  class="mono L2">║</text>
<text x="44" y="84"  class="mono-dim L2">NAME      →</text>
<text x="140" y="84" class="mono L2">Sebastian D. Pinzón Zambrano</text>
<text x="626" y="84" class="mono L2">║</text>

<text x="30" y="102"  class="mono L3">║</text>
<text x="44" y="102"  class="mono-dim L3">ALIAS     →</text>
<text x="140" y="102" class="mono L3">Ares-Infenus</text>
<text x="626" y="102" class="mono L3">║</text>

<text x="30" y="120"  class="mono L4">║</text>
<text x="44" y="120"  class="mono-dim L4">LOCATION  →</text>
<text x="140" y="120" class="mono L4">Colombia</text>
<text x="626" y="120" class="mono L4">║</text>

<text x="30" y="138"  class="mono L5">║</text>
<text x="44" y="138"  class="mono-dim L5">STATUS    →</text>
<text x="140" y="138" class="mono L5">Colombian Army [Admin &amp; Ops] + Data Engineering</text>
<text x="626" y="138" class="mono L5">║</text>

<text x="30" y="156" class="mono L6">╠══════════════════════════════════════════════════════════════════╣</text>

<text x="30" y="174"  class="mono L7">║</text>
<text x="44" y="174"  class="mono-dim L7">TRANSITION VECTOR:</text>
<text x="626" y="174" class="mono L7">║</text>

<text x="30" y="192"  class="mono L8">║</text>
<text x="54" y="192"  class="mono-dim L8">Military logistics &amp; operations</text>
<text x="626" y="192" class="mono L8">║</text>

<text x="30" y="210"  class="mono L9">║</text>
<text x="54" y="210"  class="mono-dim L9">└──►</text>
<text x="92" y="210"  class="mono L9">Distributed data systems &amp; ML pipelines</text>
<text x="626" y="210" class="mono L9">║</text>

<text x="30" y="228"  class="mono L10">║</text>
<text x="72" y="228"  class="mono-dim L10">└──►</text>
<text x="110" y="228" class="mono L10">Remote data engineering roles (USD-denominated)</text>
<text x="626" y="228" class="mono L10">║</text>

<text x="30" y="246" class="mono L11">╠══════════════════════════════════════════════════════════════════╣</text>

<text x="30" y="264"  class="mono L12">║</text>
<text x="44" y="264"  class="mono-dim L12">CURRENT STACK:</text>
<text x="626" y="264" class="mono L12">║</text>

<text x="30" y="282"  class="mono L13">║</text>
<text x="54" y="282"  class="mono-dim L13">├──</text>
<text x="80" y="282"  class="mono L13">PySpark + Delta Lake</text>
<text x="246" y="282" class="mono-dim L13">[100M+ record pipelines]</text>
<text x="626" y="282" class="mono L13">║</text>

<text x="30" y="300"  class="mono L14">║</text>
<text x="54" y="300"  class="mono-dim L14">├──</text>
<text x="80" y="300"  class="mono L14">Python · SQL · FastAPI</text>
<text x="246" y="300" class="mono-dim L14">[core engineering layer]</text>
<text x="626" y="300" class="mono L14">║</text>

<text x="30" y="318"  class="mono L15">║</text>
<text x="54" y="318"  class="mono-dim L15">├──</text>
<text x="80" y="318"  class="mono L15">Docker · GitHub Actions</text>
<text x="246" y="318" class="mono-dim L15">[CI/CD &amp; containerization]</text>
<text x="626" y="318" class="mono L15">║</text>

<text x="30" y="336"  class="mono L16">║</text>
<text x="54" y="336"  class="mono-dim L16">├──</text>
<text x="80" y="336"  class="mono L16">Scikit-learn · HuggingFace</text>
<text x="246" y="336" class="mono-dim L16">[ML &amp; NLP]</text>
<text x="626" y="336" class="mono L16">║</text>

<text x="30" y="354"  class="mono L17">║</text>
<text x="54" y="354"  class="mono-dim L17">└──</text>
<text x="80" y="354"  class="mono L17">Streamlit · Power BI</text>
<text x="246" y="354" class="mono-dim L17">[dashboards &amp; storytelling]</text>
<text x="626" y="354" class="mono L17">║</text>

<text x="30" y="372" class="mono L18">╠══════════════════════════════════════════════════════════════════╣</text>

<text x="30" y="390"  class="mono L19">║</text>
<text x="44" y="390"  class="mono-dim L19">MISSION:</text>
<text x="626" y="390" class="mono L19">║</text>

<text x="30" y="408"  class="mono L20">║</text>
<text x="54" y="408"  class="mono L20">Build production-grade data systems. Ship them publicly.</text>
<text x="626" y="408" class="mono L20">║</text>

<text x="30" y="426"  class="mono L21">║</text>
<text x="54" y="426"  class="mono L21">Earn trust through code, not credentials.</text>
<text x="626" y="426" class="mono L21">║</text>

<text x="30" y="444" class="mono L22">╚══════════════════════════════════════════════════════════════════╝</text>

<!-- Prompt + blinking cursor -->
<text x="30" y="474" class="mono cursor">$</text>
<rect x="45" y="460" width="8" height="14" fill="#00ffcc" class="blink"/>

</svg>
